<?xml version="1.0" encoding="utf-8"?>
<!-- Generator: Adobe Illustrator 16.0.0, SVG Export Plug-In . SVG Version: 6.00 Build 0)  -->
<!DOCTYPE svg PUBLIC "-//W3C//DTD SVG 1.1//EN" "http://www.w3.org/Graphics/SVG/1.1/DTD/svg11.dtd">
<svg version="1.1" xmlns="http://www.w3.org/2000/svg" xmlns:xlink="http://www.w3.org/1999/xlink" x="0px" y="0px" width="640px"
	 height="480px" viewBox="0 0 640 480" enable-background="new 0 0 640 480" xml:space="preserve">
<g id="Ebene_1">
</g>
<g id="Ebene_2">
	<g>
		<path fill="#45A5D6" d="M222.058,202.172c0,0.188-0.063,0.281-0.188,0.281h-14.203c-0.188,0-0.281-0.078-0.281-0.234v-1.055
			c0-0.172,0.125-0.258,0.375-0.258h3.563c0.297,0,0.477-0.078,0.539-0.234s0.102-0.648,0.117-1.477
			c0.031-1.703,0.047-5.883,0.047-12.539c0-0.281-0.141-0.422-0.422-0.422h-14.367c-0.281,0-0.422,0.172-0.422,0.516
			c0,5,0.016,8.078,0.047,9.234c0.094,3.281,0.461,4.922,1.102,4.922h4.125c0.141,0,0.211,0.102,0.211,0.305v1.008
			c0,0.156-0.07,0.234-0.211,0.234h-14.203c-0.141,0-0.223-0.023-0.246-0.07s-0.035-0.102-0.035-0.164v-1.008
			c0-0.203,0.094-0.305,0.281-0.305h3.07c0.391,0,0.625-0.082,0.703-0.246s0.117-0.652,0.117-1.465c0-0.266-0.016-2.348-0.047-6.246
			s-0.047-6.063-0.047-6.492s-0.016-2.117-0.047-5.063s-0.047-4.52-0.047-4.723c0-2.969-0.273-4.453-0.82-4.453h-3.445
			c-0.234,0-0.352-0.078-0.352-0.234v-1.078c0-0.156,0.117-0.234,0.352-0.234h13.969c0.219,0,0.328,0.117,0.328,0.352v0.961
			c0,0.156-0.109,0.234-0.328,0.234h-3.656c-0.516,0-0.773,0.203-0.773,0.609c0,0.172-0.008,1.969-0.023,5.391
			s-0.023,5.258-0.023,5.508c0,0.359,0.125,0.539,0.375,0.539h14.367c0.281,0,0.422-0.148,0.422-0.445
			c0-0.125-0.008-1.352-0.023-3.68s-0.023-3.609-0.023-3.844c0-2.719-0.32-4.078-0.961-4.078h-3.797
			c-0.156,0-0.234-0.102-0.234-0.305v-1.008c0-0.156,0.117-0.234,0.352-0.234h14.109c0.188,0,0.281,0.117,0.281,0.352v0.891
			c0,0.203-0.094,0.305-0.281,0.305h-3.281c-0.469,0-0.746,0.035-0.832,0.105s-0.129,0.324-0.129,0.762v12.375
			c0,6.344,0.016,10.008,0.047,10.992c0.109,2.969,0.43,4.453,0.961,4.453h3.609c0.188,0,0.281,0.102,0.281,0.305V202.172z"/>
		<path fill="#45A5D6" d="M244.323,198.75c-0.031,0.094-0.078,0.18-0.141,0.258c-1.031,1.031-2.391,1.922-4.078,2.672
			c-1.781,0.797-3.578,1.195-5.391,1.195c-2.891,0-5.188-0.813-6.891-2.438c-1.953-1.859-3.031-4.273-3.234-7.242
			c-0.094-1.531,0.07-3.117,0.492-4.758c0.609-2.344,1.617-4.164,3.023-5.461c1.516-1.422,3.305-2.133,5.367-2.133
			c1.656,0,3.305,0.305,4.945,0.914c1.422,0.531,2.719,1.383,3.891,2.555c0.813,0.813,1.406,1.531,1.781,2.156
			c0.125,0.172,0.188,0.414,0.188,0.727c0,0.188-0.133,0.332-0.398,0.434s-1.27,0.336-3.012,0.703s-2.848,0.582-3.316,0.645
			c-0.938,0.141-1.883,0.289-2.836,0.445c-1.813,0.266-2.992,0.398-3.539,0.398c-0.078,0-0.395,0.008-0.949,0.023
			s-0.879,0.023-0.973,0.023c-0.156,0-0.219,0.375-0.188,1.125c0.141,3,1.016,5.445,2.625,7.336
			c0.547,0.625,1.461,1.109,2.742,1.453c1.125,0.297,2.25,0.438,3.375,0.422c1.75-0.047,3.141-0.336,4.172-0.867
			c0.656-0.344,1.148-0.68,1.477-1.008c0.063-0.047,0.141-0.094,0.234-0.141c0.078,0,0.227,0.109,0.445,0.328
			C244.261,198.641,244.323,198.719,244.323,198.75z M238.862,186.75c0-0.031-0.07-0.234-0.211-0.609
			c-0.375-0.688-0.617-1.109-0.727-1.266c-0.344-0.469-0.852-0.977-1.523-1.523c-0.953-0.766-2.023-1.148-3.211-1.148
			c-1,0-1.883,0.539-2.648,1.617c-0.266,0.391-0.539,1.066-0.82,2.027s-0.422,1.73-0.422,2.309c0,0.313,0.063,0.469,0.188,0.469
			c0.828,0,1.953-0.063,3.375-0.188c0.484-0.047,1.441-0.227,2.871-0.539s2.355-0.547,2.777-0.703
			C238.745,187.086,238.862,186.938,238.862,186.75z"/>
		<path fill="#45A5D6" d="M258.198,202.266c0,0.125-0.078,0.188-0.234,0.188h-12.047c-0.219,0-0.328-0.078-0.328-0.234v-0.867
			c0-0.188,0.094-0.281,0.281-0.281h3.258c0.328,0,0.492-0.18,0.492-0.539v-25.734c0-3.578-0.32-5.367-0.961-5.367h-2.461
			c-0.188,0-0.281-0.102-0.281-0.305v-0.75c0-0.234,0.063-0.352,0.188-0.352h2.203c1.219,0,2.531-0.172,3.938-0.516
			c1.156-0.297,1.719-0.445,1.688-0.445c0.344,0,0.516,0.227,0.516,0.68c0,0.047-0.055,4.672-0.164,13.875
			s-0.164,13.969-0.164,14.297c0,3.438,0.305,5.156,0.914,5.156h2.93c0.156,0,0.234,0.078,0.234,0.234V202.266z"/>
		<path fill="#45A5D6" d="M271.745,202.266c0,0.125-0.078,0.188-0.234,0.188h-12.047c-0.219,0-0.328-0.078-0.328-0.234v-0.867
			c0-0.188,0.094-0.281,0.281-0.281h3.258c0.328,0,0.492-0.18,0.492-0.539v-25.734c0-3.578-0.32-5.367-0.961-5.367h-2.461
			c-0.188,0-0.281-0.102-0.281-0.305v-0.75c0-0.234,0.063-0.352,0.188-0.352h2.203c1.219,0,2.531-0.172,3.938-0.516
			c1.156-0.297,1.719-0.445,1.688-0.445c0.344,0,0.516,0.227,0.516,0.68c0,0.047-0.055,4.672-0.164,13.875
			s-0.164,13.969-0.164,14.297c0,3.438,0.305,5.156,0.914,5.156h2.93c0.156,0,0.234,0.078,0.234,0.234V202.266z"/>
		<path fill="#45A5D6" d="M295.675,191.461c0,2.109-0.375,3.898-1.125,5.367c-0.938,1.906-2.25,3.367-3.938,4.383
			s-3.664,1.523-5.93,1.523c-2.078,0-3.68-0.273-4.805-0.82c-2.297-1.141-3.852-2.516-4.664-4.125c-0.984-1.953-1.492-4-1.523-6.141
			c-0.047-2.359,0.508-4.469,1.664-6.328c1.031-1.656,2.477-2.906,4.336-3.75c1.469-0.672,3.5-1.008,6.094-1.008
			c2.063,0,3.805,0.414,5.227,1.242c1.641,0.969,2.828,2.285,3.563,3.949S295.675,189.32,295.675,191.461z M291.058,192.609
			c-0.047-3.031-0.781-5.508-2.203-7.43c-1.516-2.063-3.375-3.039-5.578-2.93c-1.703,0.078-2.867,0.586-3.492,1.523
			c-0.938,1.391-1.406,3.359-1.406,5.906c0,2.594,0.5,5.063,1.5,7.406c0.609,1.438,1.438,2.539,2.484,3.305
			c0.844,0.609,1.852,0.914,3.023,0.914c1.25,0,2.195-0.227,2.836-0.68c0.953-0.656,1.688-1.664,2.203-3.023
			C290.878,196.43,291.089,194.766,291.058,192.609z"/>
		<path fill="#45A5D6" d="M325.417,199.43c0.078,0.141-0.016,0.32-0.281,0.539c-0.703,0.578-1.648,1.102-2.836,1.57
			c-1.813,0.734-3.555,1.102-5.227,1.102c-1.766,0-3.133-0.453-4.102-1.359s-1.453-2.117-1.453-3.633
			c0-0.219,0.031-1.918,0.094-5.098s0.094-4.855,0.094-5.027c0-2.078-0.031-3.297-0.094-3.656c-0.016-0.203-0.195-0.484-0.539-0.844
			c-0.531-0.25-1.156-0.539-1.875-0.867c-0.25-0.125-0.375-0.305-0.375-0.539c0-0.25,0.125-0.438,0.375-0.563
			c0.344-0.188,1.332-0.879,2.965-2.074s2.547-1.895,2.742-2.098s0.457-0.305,0.785-0.305c0.406,0,0.578,0.211,0.516,0.633
			c-0.078,0.844-0.172,1.836-0.281,2.977c-0.047,0.469,0.031,0.719,0.234,0.75c2.25,0.234,4.813,0.352,7.688,0.352
			c0.297,0,0.422,0.156,0.375,0.469c-0.094,0.406-0.219,0.922-0.375,1.547c-0.063,0.219-0.211,0.328-0.445,0.328
			c-0.172,0-1.406-0.07-3.703-0.211s-3.477-0.211-3.539-0.211c-0.188,0-0.281,0.125-0.281,0.375v12.094
			c0,1.938,0.305,3.148,0.914,3.633c0.5,0.391,1.539,0.586,3.117,0.586c1.484,0,2.813-0.234,3.984-0.703l1.055-0.445
			C325.042,198.75,325.198,198.977,325.417,199.43z"/>
		<path fill="#45A5D6" d="M352.581,202.172c0,0.188-0.063,0.281-0.188,0.281h-10.078c-0.156,0-0.234-0.063-0.234-0.188v-0.961
			c0-0.156,0.078-0.234,0.234-0.234h1.5c0.172,0,0.297-0.133,0.375-0.398c0.188-1.891,0.281-5.375,0.281-10.453
			c0-2.688-0.32-4.453-0.961-5.297c-0.516-0.672-1.617-1.008-3.305-1.008c-1.406,0-2.813,0.242-4.219,0.727
			c-0.266,0.094-0.398,0.305-0.398,0.633c-0.094,0.672-0.141,4.352-0.141,11.039c0,3.172,0.258,4.758,0.773,4.758h2.602
			c0.156,0,0.234,0.078,0.234,0.234v0.961c0,0.125-0.078,0.188-0.234,0.188h-11.25c-0.078,0-0.137-0.016-0.176-0.047
			s-0.059-0.109-0.059-0.234v-0.914c0-0.125,0.078-0.188,0.234-0.188h2.836c0.266,0,0.398-0.148,0.398-0.445l0.094-27.07
			c0-1.422-0.016-2.25-0.047-2.484c-0.141-1.094-0.508-1.641-1.102-1.641h-2.602c-0.078-0.016-0.137-0.035-0.176-0.059
			s-0.059-0.105-0.059-0.246v-0.75c0-0.234,0.078-0.352,0.234-0.352h1.102c1.938,0,3.602-0.238,4.992-0.715s2.172-0.715,2.344-0.715
			c0.203,0,0.305,0.219,0.305,0.656c0,0.125-0.043,2.723-0.129,7.793s-0.129,7.66-0.129,7.77c0,0.516,0.102,0.711,0.305,0.586
			c0.672-0.453,1.648-1,2.93-1.641c1.344-0.672,2.57-1.008,3.68-1.008c2.047,0,3.617,0.547,4.711,1.641
			c1.281,1.281,1.922,3.438,1.922,6.469c0,1.047-0.031,2.809-0.094,5.285s-0.094,3.691-0.094,3.645c0,2.188,0.156,3.281,0.469,3.281
			h2.836c0.188,0,0.281,0.047,0.281,0.141V202.172z"/>
		<path fill="#45A5D6" d="M374.19,198.75c-0.031,0.094-0.078,0.18-0.141,0.258c-1.031,1.031-2.391,1.922-4.078,2.672
			c-1.781,0.797-3.578,1.195-5.391,1.195c-2.891,0-5.188-0.813-6.891-2.438c-1.953-1.859-3.031-4.273-3.234-7.242
			c-0.094-1.531,0.07-3.117,0.492-4.758c0.609-2.344,1.617-4.164,3.023-5.461c1.516-1.422,3.305-2.133,5.367-2.133
			c1.656,0,3.305,0.305,4.945,0.914c1.422,0.531,2.719,1.383,3.891,2.555c0.813,0.813,1.406,1.531,1.781,2.156
			c0.125,0.172,0.188,0.414,0.188,0.727c0,0.188-0.133,0.332-0.398,0.434s-1.27,0.336-3.012,0.703s-2.848,0.582-3.316,0.645
			c-0.938,0.141-1.883,0.289-2.836,0.445c-1.813,0.266-2.992,0.398-3.539,0.398c-0.078,0-0.395,0.008-0.949,0.023
			s-0.879,0.023-0.973,0.023c-0.156,0-0.219,0.375-0.188,1.125c0.141,3,1.016,5.445,2.625,7.336
			c0.547,0.625,1.461,1.109,2.742,1.453c1.125,0.297,2.25,0.438,3.375,0.422c1.75-0.047,3.141-0.336,4.172-0.867
			c0.656-0.344,1.148-0.68,1.477-1.008c0.063-0.047,0.141-0.094,0.234-0.141c0.078,0,0.227,0.109,0.445,0.328
			C374.128,198.641,374.19,198.719,374.19,198.75z M368.729,186.75c0-0.031-0.07-0.234-0.211-0.609
			c-0.375-0.688-0.617-1.109-0.727-1.266c-0.344-0.469-0.852-0.977-1.523-1.523c-0.953-0.766-2.023-1.148-3.211-1.148
			c-1,0-1.883,0.539-2.648,1.617c-0.266,0.391-0.539,1.066-0.82,2.027s-0.422,1.73-0.422,2.309c0,0.313,0.063,0.469,0.188,0.469
			c0.828,0,1.953-0.063,3.375-0.188c0.484-0.047,1.441-0.227,2.871-0.539s2.355-0.547,2.777-0.703
			C368.612,187.086,368.729,186.938,368.729,186.75z"/>
		<path fill="#45A5D6" d="M393.198,183.352c-0.203,1.266-0.492,2.289-0.867,3.07c-0.078,0.172-0.25,0.367-0.516,0.586
			c-0.234,0.031-0.43-0.055-0.586-0.258c-0.578-0.813-0.992-1.305-1.242-1.477c-0.734-0.516-1.516-0.773-2.344-0.773
			c-1.547,0-2.75,0.336-3.609,1.008c-0.156,0.125-0.234,0.336-0.234,0.633c0,0.094-0.008,1.891-0.023,5.391
			s-0.023,5.352-0.023,5.555c0,2.625,0.273,3.953,0.82,3.984l4.031,0.141c0.188,0,0.281,0.109,0.281,0.328v0.82
			c0,0.156-0.063,0.234-0.188,0.234l-12.398-0.141c-0.219,0-0.328-0.078-0.328-0.234v-0.82c0-0.219,0.094-0.328,0.281-0.328h2.508
			c0.313,0,0.469-0.148,0.469-0.445v-15.07c0-2.141-0.266-3.211-0.797-3.211h-2.555c-0.156,0-0.234-0.078-0.234-0.234v-0.961
			c0-0.172,0.078-0.258,0.234-0.258h3.352c1.281,0,2.242-0.063,2.883-0.188c0.672-0.219,1.156-0.328,1.453-0.328
			c0.219,0,0.328,0.211,0.328,0.633c0,0.109-0.016,0.496-0.047,1.16s-0.047,1.043-0.047,1.137c0,0.438,0.109,0.563,0.328,0.375
			c1.125-0.891,1.781-1.414,1.969-1.57c1.266-0.844,2.453-1.266,3.563-1.266c1.484,0,2.633,0.609,3.445,1.828
			C393.245,182.891,393.276,183.117,393.198,183.352z"/>
		<path fill="#45A5D6" d="M414.667,198.75c-0.031,0.094-0.078,0.18-0.141,0.258c-1.031,1.031-2.391,1.922-4.078,2.672
			c-1.781,0.797-3.578,1.195-5.391,1.195c-2.891,0-5.188-0.813-6.891-2.438c-1.953-1.859-3.031-4.273-3.234-7.242
			c-0.094-1.531,0.07-3.117,0.492-4.758c0.609-2.344,1.617-4.164,3.023-5.461c1.516-1.422,3.305-2.133,5.367-2.133
			c1.656,0,3.305,0.305,4.945,0.914c1.422,0.531,2.719,1.383,3.891,2.555c0.813,0.813,1.406,1.531,1.781,2.156
			c0.125,0.172,0.188,0.414,0.188,0.727c0,0.188-0.133,0.332-0.398,0.434s-1.27,0.336-3.012,0.703s-2.848,0.582-3.316,0.645
			c-0.938,0.141-1.883,0.289-2.836,0.445c-1.813,0.266-2.992,0.398-3.539,0.398c-0.078,0-0.395,0.008-0.949,0.023
			s-0.879,0.023-0.973,0.023c-0.156,0-0.219,0.375-0.188,1.125c0.141,3,1.016,5.445,2.625,7.336
			c0.547,0.625,1.461,1.109,2.742,1.453c1.125,0.297,2.25,0.438,3.375,0.422c1.75-0.047,3.141-0.336,4.172-0.867
			c0.656-0.344,1.148-0.68,1.477-1.008c0.063-0.047,0.141-0.094,0.234-0.141c0.078,0,0.227,0.109,0.445,0.328
			C414.604,198.641,414.667,198.719,414.667,198.75z M409.206,186.75c0-0.031-0.07-0.234-0.211-0.609
			c-0.375-0.688-0.617-1.109-0.727-1.266c-0.344-0.469-0.852-0.977-1.523-1.523c-0.953-0.766-2.023-1.148-3.211-1.148
			c-1,0-1.883,0.539-2.648,1.617c-0.266,0.391-0.539,1.066-0.82,2.027s-0.422,1.73-0.422,2.309c0,0.313,0.063,0.469,0.188,0.469
			c0.828,0,1.953-0.063,3.375-0.188c0.484-0.047,1.441-0.227,2.871-0.539s2.355-0.547,2.777-0.703
			C409.089,187.086,409.206,186.938,409.206,186.75z"/>
		<path fill="#45A5D6" d="M422.987,200.203c0,0.703-0.262,1.316-0.785,1.84s-1.223,0.785-2.098,0.785
			c-1.734,0-2.602-0.813-2.602-2.438c0-0.891,0.344-1.578,1.031-2.063c0.531-0.359,1.117-0.539,1.758-0.539
			C422.089,197.789,422.987,198.594,422.987,200.203z M423.362,179.508c0,2.375-0.32,5.461-0.961,9.258
			c-0.516,3.031-0.961,5.164-1.336,6.398c-0.156,0.5-0.445,0.703-0.867,0.609c-0.703-0.141-1.039-0.43-1.008-0.867
			c0-0.156,0.016-0.438,0.047-0.844c0.094-1.109,0.141-2.695,0.141-4.758c0-4.359-0.477-9.367-1.43-15.023
			c-0.234-1.328-0.352-2.031-0.352-2.109c0-0.391,0.211-0.586,0.633-0.586c0.313,0,0.953,0.195,1.922,0.586
			c0.656,0.25,1.422,0.555,2.297,0.914c0.438,0.188,0.68,0.453,0.727,0.797C423.3,174.789,423.362,176.664,423.362,179.508z"/>
		<path fill="#2B7AD8" d="M138.707,292.063c0,0.261-0.13,0.391-0.391,0.391h-25c-0.456,0-0.684-0.162-0.684-0.488v-2.1
			c0-0.423,0.195-0.635,0.586-0.635h5.615c0.456,0,0.684-0.455,0.684-1.367c0-0.325-0.017-8.504-0.049-24.536
			c-0.033-16.032-0.049-24.259-0.049-24.683c0-6.12-0.603-9.18-1.807-9.18h-5.176c-0.488,0-0.732-0.163-0.732-0.488v-2.344
			c0-0.26,0.163-0.391,0.488-0.391h25.098c0.293,0,0.439,0.13,0.439,0.391v2.441c0,0.261-0.179,0.391-0.537,0.391h-5.859
			c-0.619,0-0.928,0.228-0.928,0.684c0,0.195-0.017,7.536-0.049,22.021c-0.033,14.486-0.049,22.217-0.049,23.193
			c0,4.59,0.032,7.275,0.098,8.057c0.228,3.874,0.895,5.811,2.002,5.811h5.811c0.325,0,0.488,0.146,0.488,0.439V292.063z"/>
		<path fill="#2B7AD8" d="M164.586,248.654c-0.423,2.507-2.409,3.76-5.957,3.76c-2.767,0-5.111-1.123-7.031-3.369
			c-1.855-2.148-2.783-4.639-2.783-7.471c0-4.134,2.539-7.975,7.617-11.523c1.042-0.716,1.709-1.074,2.002-1.074
			c1.074,0,1.692,0.326,1.855,0.977c0.163,0.619-0.033,1.188-0.586,1.709c-2.734,2.604-4.102,5.273-4.102,8.008
			c0,1.53,0.504,2.621,1.514,3.271c0.163,0.098,0.919,0.131,2.271,0.098c1.351-0.032,2.571,0.424,3.662,1.367
			c1.09,0.944,1.619,2.084,1.587,3.418C164.635,248.117,164.618,248.395,164.586,248.654z"/>
		<path fill="#2B7AD8" d="M249.645,291.867c0,0.391-0.13,0.586-0.391,0.586h-20.801c-0.326,0-0.505-0.13-0.537-0.391v-2.002
			c0.032-0.325,0.211-0.488,0.537-0.488h3.76c0.553,0,0.83-0.276,0.83-0.83c0.391-3.938,0.586-11.197,0.586-21.777
			c0-5.338-0.749-8.862-2.246-10.571c-1.498-1.709-3.744-2.563-6.738-2.563c-2.962,0-5.892,0.7-8.789,2.1
			c0.521,1.465,0.781,4.199,0.781,8.203c0,2.182-0.065,5.852-0.195,11.011c-0.13,5.159-0.195,7.69-0.195,7.593
			c0,3.711-0.033,5.078-0.098,4.102c0.098,1.823,0.456,2.734,1.074,2.734h5.127c0.358,0,0.553,0.098,0.586,0.293v2.002
			c0,0.391-0.13,0.586-0.391,0.586h-20.508c-0.261,0-0.456-0.098-0.586-0.293v-2.1c0.228-0.325,0.391-0.488,0.488-0.488h3.711
			c0.521,0,0.781-0.276,0.781-0.83c0.391-3.938,0.586-11.197,0.586-21.777c0-5.338-0.781-8.895-2.344-10.669
			s-3.776-2.661-6.641-2.661c-2.767,0-5.762,0.505-8.984,1.514c-0.554,0.163-0.83,0.603-0.83,1.318
			c0,0.229-0.049,4.094-0.146,11.597s-0.146,11.369-0.146,11.597c0,6.608,0.537,9.912,1.611,9.912h4.883
			c0.26,0,0.423,0.163,0.488,0.488v2.002c-0.195,0.261-0.358,0.391-0.488,0.391h-22.412c-0.163,0-0.285-0.032-0.366-0.098
			c-0.082-0.064-0.122-0.228-0.122-0.488v-1.904c0.228-0.26,0.391-0.391,0.488-0.391h5.615c0.553,0,0.83-0.309,0.83-0.928
			c0-2.213,0.049-7.471,0.146-15.771s0.146-13.379,0.146-15.234c0-4.85-0.537-7.275-1.611-7.275h-5.713
			c-0.391,0-0.586-0.195-0.586-0.586v-1.904c0-0.293,0.13-0.439,0.391-0.439h6.592c0.358,0,1.326-0.032,2.905-0.098
			c1.579-0.064,2.531-0.098,2.856-0.098c0.325,0,1.05-0.081,2.173-0.244c1.123-0.162,1.782-0.244,1.978-0.244
			c0.456,0,0.684,0.375,0.684,1.123c0,0.163-0.017,0.757-0.049,1.782c-0.033,1.025-0.049,1.652-0.049,1.88
			c0,0.814,0.211,1.221,0.635,1.221c1.399-0.879,3.499-2.018,6.299-3.418c2.799-1.399,5.354-2.1,7.666-2.1
			c4.264,0,7.503,1.14,9.717,3.418c0.879,0.879,1.546,1.742,2.002,2.588c1.497-0.879,3.809-2.1,6.934-3.662s5.778-2.344,7.959-2.344
			c4.134,0,7.405,1.14,9.814,3.418c2.669,2.507,4.004,6.999,4.004,13.477c0,2.182-0.065,5.852-0.195,11.011
			c-0.13,5.159-0.195,7.69-0.195,7.593c0,3.613-0.033,4.916-0.098,3.906c0.098,1.953,0.456,2.93,1.074,2.93h5.078
			c0.391,0,0.602,0.098,0.635,0.293V291.867z"/>
		<path fill="#2B7AD8" d="M337.047,226.73c-0.229,1.563-0.83,4.199-1.807,7.91c-0.131,0.488-0.537,0.732-1.221,0.732
			c-0.749,0-1.254-0.276-1.514-0.83c-0.651-1.399-1.742-2.295-3.271-2.686c-1.074-0.293-3.906-0.635-8.496-1.025
			c-4.362-0.391-7.324-0.586-8.887-0.586c-0.456,0-0.7,0.228-0.732,0.684c-0.391,8.431-0.586,23.438-0.586,45.02
			c0,8.854,0.765,13.281,2.295,13.281h7.813c0.195,0,0.293,0.146,0.293,0.439v2.295c0,0.326-0.098,0.488-0.293,0.488h-28.223
			c-0.326,0-0.488-0.162-0.488-0.488v-2.197c0-0.357,0.163-0.537,0.488-0.537h7.129c0.586,0,0.879-0.357,0.879-1.074
			c0-0.098-0.033-1.758-0.098-4.98c-0.065-3.223-0.098-5.159-0.098-5.811c0-0.553,0.081-6.111,0.244-16.675
			c0.163-10.563,0.244-16.072,0.244-16.528c0-9.342-0.537-14.014-1.611-14.014c-7.52,0-13.574,0.667-18.164,2.002
			c-1.074,0.326-2.132,1.018-3.174,2.075c-1.042,1.058-1.758,1.636-2.148,1.733c-0.977,0.13-1.611,0-1.904-0.391
			c-0.261-0.293-0.163-0.83,0.293-1.611c0.846-2.864,1.692-5.469,2.539-7.813c0.13-0.423,0.488-0.586,1.074-0.488
			c0.553,0.065,4.573,0.261,12.061,0.586c8.008,0.326,13.428,0.488,16.26,0.488c9.44,0,18.294-0.13,26.563-0.391
			c0.977-0.032,1.888-0.098,2.734-0.195c0.748-0.13,1.106-0.195,1.074-0.195C336.803,225.949,337.047,226.21,337.047,226.73z"/>
		<path fill="#2B7AD8" d="M387.047,269.553c0,4.395-0.781,8.122-2.344,11.182c-1.953,3.972-4.688,7.016-8.203,9.131
			c-3.516,2.116-7.634,3.174-12.354,3.174c-4.33,0-7.666-0.57-10.01-1.709c-4.785-2.376-8.024-5.24-9.717-8.594
			c-2.051-4.068-3.109-8.333-3.174-12.793c-0.098-4.915,1.058-9.31,3.467-13.184c2.148-3.45,5.159-6.055,9.033-7.813
			c3.06-1.399,7.291-2.1,12.695-2.1c4.297,0,7.926,0.863,10.889,2.588c3.418,2.019,5.892,4.761,7.422,8.228
			C386.281,261.13,387.047,265.094,387.047,269.553z M377.428,271.945c-0.098-6.314-1.628-11.475-4.59-15.479
			c-3.158-4.297-7.031-6.331-11.621-6.104c-3.549,0.163-5.974,1.221-7.275,3.174c-1.953,2.897-2.93,6.999-2.93,12.305
			c0,5.404,1.041,10.547,3.125,15.43c1.27,2.995,2.994,5.29,5.176,6.885c1.758,1.27,3.857,1.904,6.299,1.904
			c2.604,0,4.573-0.472,5.908-1.416c1.985-1.367,3.516-3.467,4.59-6.299C377.053,279.904,377.492,276.438,377.428,271.945z"/>
		<path fill="#2B7AD8" d="M444.322,291.867c0,0.391-0.131,0.586-0.391,0.586h-20.801c-0.326,0-0.488-0.13-0.488-0.391v-2.002
			c0-0.325,0.162-0.488,0.488-0.488h3.711c0.357,0,0.618-0.276,0.781-0.83c0.391-3.938,0.586-11.197,0.586-21.777
			c0-5.338-0.749-8.862-2.246-10.571c-1.498-1.709-3.711-2.563-6.641-2.563c-2.865,0-5.795,0.505-8.789,1.514
			c-0.554,0.195-0.83,0.635-0.83,1.318c-0.195,1.4-0.293,9.066-0.293,22.998c0,6.608,0.537,9.912,1.611,9.912h4.883
			c0.357,0,0.537,0.163,0.537,0.488v2.002c0,0.261-0.18,0.391-0.537,0.391h-22.607c-0.163,0-0.285-0.032-0.366-0.098
			c-0.081-0.064-0.122-0.228-0.122-0.488v-1.904c0-0.26,0.162-0.391,0.488-0.391h5.615c0.521,0,0.797-0.309,0.83-0.928
			c0.195-14.583,0.293-24.918,0.293-31.006c0-4.85-0.537-7.275-1.611-7.275h-5.713c-0.391,0-0.586-0.195-0.586-0.586v-1.904
			c0-0.293,0.13-0.439,0.391-0.439h6.592c2.083,0,3.76-0.064,5.029-0.195c3.157-0.325,4.85-0.488,5.078-0.488
			c0.455,0,0.684,0.375,0.684,1.123c0,0.163-0.017,0.757-0.049,1.782c-0.033,1.025-0.049,1.652-0.049,1.88
			c0,1.074,0.211,1.481,0.635,1.221c1.595-1.074,3.597-2.213,6.006-3.418c2.799-1.399,5.387-2.1,7.764-2.1
			c4.264,0,7.535,1.14,9.814,3.418c2.669,2.67,4.004,7.162,4.004,13.477c0,2.182-0.065,5.852-0.195,11.011
			c-0.131,5.159-0.195,7.69-0.195,7.593c0,3.744-0.033,5.127-0.098,4.15c0.098,1.791,0.455,2.686,1.074,2.686h5.127
			c0.391,0,0.586,0.098,0.586,0.293V291.867z"/>
		<path fill="#2B7AD8" d="M473.619,292.063c0,0.261-0.163,0.391-0.488,0.391H449.01c-0.163,0-0.285-0.032-0.366-0.098
			c-0.081-0.064-0.122-0.228-0.122-0.488v-1.904c0-0.26,0.162-0.391,0.488-0.391h6.104c0.521,0,0.797-0.309,0.83-0.928
			c0.195-14.583,0.293-24.707,0.293-30.371c0-5.013-0.668-7.52-2.002-7.52h-5.322c-0.391,0-0.586-0.195-0.586-0.586v-2.295
			c0-0.293,0.13-0.439,0.391-0.439h6.592c2.083,0,3.76-0.064,5.029-0.195c3.157-0.325,4.85-0.488,5.078-0.488
			c0.455,0,0.684,0.375,0.684,1.123c0,0.163-0.033,1.604-0.098,4.321c-0.065,2.718-0.098,4.208-0.098,4.468
			c-0.326,2.312-0.488,10.01-0.488,23.096c0,6.543,0.602,9.814,1.807,9.814h5.908c0.325,0,0.488,0.163,0.488,0.488V292.063z
			 M465.904,230.637c0,1.986-0.944,3.76-2.832,5.322c-1.628,1.335-3.142,2.002-4.541,2.002c-2.67,0-4.004-1.27-4.004-3.809
			c0-1.399,0.65-2.864,1.953-4.395c1.529-1.79,3.45-2.686,5.762-2.686C464.684,227.072,465.904,228.261,465.904,230.637z"/>
		<path fill="#2B7AD8" d="M523.961,269.553c0,4.395-0.781,8.122-2.344,11.182c-1.953,3.972-4.688,7.016-8.203,9.131
			c-3.516,2.116-7.634,3.174-12.354,3.174c-4.33,0-7.666-0.57-10.01-1.709c-4.785-2.376-8.024-5.24-9.717-8.594
			c-2.051-4.068-3.109-8.333-3.174-12.793c-0.098-4.915,1.058-9.31,3.467-13.184c2.148-3.45,5.159-6.055,9.033-7.813
			c3.06-1.399,7.291-2.1,12.695-2.1c4.297,0,7.926,0.863,10.889,2.588c3.418,2.019,5.892,4.761,7.422,8.228
			C523.195,261.13,523.961,265.094,523.961,269.553z M514.342,271.945c-0.098-6.314-1.628-11.475-4.59-15.479
			c-3.158-4.297-7.031-6.331-11.621-6.104c-3.549,0.163-5.974,1.221-7.275,3.174c-1.953,2.897-2.93,6.999-2.93,12.305
			c0,5.404,1.041,10.547,3.125,15.43c1.27,2.995,2.994,5.29,5.176,6.885c1.758,1.27,3.857,1.904,6.299,1.904
			c2.604,0,4.573-0.472,5.908-1.416c1.985-1.367,3.516-3.467,4.59-6.299C513.967,279.904,514.406,276.438,514.342,271.945z"/>
	</g>
</g>
<g id="Ebene_2_Kopie" display="none">
	<text transform="matrix(1 0 0 1 185.7764 202.4531)" display="inline"><tspan x="0" y="0" fill="#45A5D6" font-family="'CalifornianFB-Bold'" font-size="48">Hello there!</tspan><tspan x="240.188" y="0" fill="#45A5D6" font-family="'CalifornianFB-Bold'" font-size="100"> </tspan><tspan x="-78.661" y="90" fill="#2B7AD8" font-family="'CalifornianFB-Bold'" font-size="100">I‘m Tonio</tspan></text>
</g>
</svg>
